<svg width="649" height="642" viewBox="0 0 649 642" fill="none" xmlns="http://www.w3.org/2000/svg">
<g filter="url(#filter0_f)">
<path d="M566.892 229.182L619.112 138.735L710.283 191.372L658.064 281.82L566.892 229.182ZM619.741 141.075L569.233 228.557L657.435 279.48L707.943 191.998L619.741 141.075Z" fill="url(#paint0_radial)" fill-opacity="0.03"/>
<path d="M209.494 23.3333L261.714 -67.1143L352.885 -14.4767L300.665 75.9709L209.494 23.3333ZM262.343 -64.7743L211.835 22.7078L300.037 73.6309L350.545 -13.8512L262.343 -64.7743Z" fill="url(#paint1_radial)" fill-opacity="0.03"/>
<path d="M528.941 88.6565L581.118 -1.71692L672.289 50.9207L620.112 141.294L528.941 88.6565ZM581.747 0.623122L531.282 88.0311L619.483 138.954L669.948 51.5462L581.747 0.623122Z" fill="url(#paint2_radial)" fill-opacity="0.03"/>
<path d="M388.484 126.178L440.704 35.7306L531.875 88.3683L479.655 178.816L388.484 126.178ZM441.333 38.0707L390.825 125.553L479.027 176.476L529.534 88.9937L441.333 38.0707Z" fill="url(#paint3_radial)" fill-opacity="0.03"/>
<path d="M439.995 37.3037L492.172 -53.0697L583.344 -0.432068L531.166 89.9414L439.995 37.3037ZM492.801 -50.7297L442.336 36.6783L530.538 87.6013L581.003 0.193388L492.801 -50.7297Z" fill="url(#paint4_radial)" fill-opacity="0.03"/>
<path d="M580.409 -0.153116L632.629 -90.6007L723.206 -38.306L670.986 52.1416L580.409 -0.153116ZM633.258 -88.2606L582.75 -0.778573L670.357 49.8016L720.865 -37.6805L633.258 -88.2606Z" fill="url(#paint5_radial)" fill-opacity="0.03"/>
<path d="M670.132 51.0509L670.56 50.3095L761.063 102.561L708.843 193.009L708.101 192.58C658.58 163.99 641.582 100.5 670.132 51.0509ZM758.722 103.187L671.189 52.6495C643.824 100.905 660.361 162.448 708.214 190.669L758.722 103.187Z" fill="url(#paint6_radial)" fill-opacity="0.03"/>
<path d="M491.054 -51.6458L543.274 -142.093L634.445 -89.4557L582.225 0.991853L491.054 -51.6458ZM543.903 -139.753L493.395 -52.2712L581.596 -1.34818L632.104 -88.8302L543.903 -139.753Z" fill="url(#paint7_radial)" fill-opacity="0.03"/>
<path d="M491.795 -51.2178L492.223 -51.9592C520.773 -101.409 584.255 -118.433 633.775 -89.8422L634.518 -89.4135L582.298 1.03403L491.795 -51.2178ZM632.177 -88.7881C583.81 -116.119 522.244 -99.6699 494.136 -51.8433L581.669 -1.30601L632.177 -88.7881Z" fill="url(#paint8_radial)" fill-opacity="0.03"/>
<path d="M441.316 37.0723L441.744 36.3309L532.247 88.5828L480.027 179.03L479.285 178.602C429.838 150.054 412.766 86.5219 441.316 37.0723ZM529.906 89.2082L442.373 38.671C415.008 86.9263 431.545 148.469 479.398 176.69L529.906 89.2082Z" fill="url(#paint9_radial)" fill-opacity="0.03"/>
<path d="M350.544 -13.8551L402.764 -104.303L493.935 -51.665L441.715 38.7826L350.544 -13.8551ZM403.393 -101.963L352.885 -14.4805L441.087 36.4425L491.594 -51.0395L403.393 -101.963Z" fill="url(#paint10_radial)" fill-opacity="0.03"/>
<path d="M299.328 75.1989L351.548 -15.2487L442.719 37.389L390.5 127.837L299.328 75.1989ZM352.177 -12.9086L301.669 74.5735L389.871 125.497L440.379 38.0144L352.177 -12.9086Z" fill="url(#paint11_radial)" fill-opacity="0.03"/>
<path d="M492.096 -51.7386L492.524 -52.48L583.026 -0.228149L530.807 90.2194L530.064 89.7907C480.544 61.2001 463.546 -2.28903 492.096 -51.7386ZM580.685 0.397307L493.152 -50.14C465.787 -1.88465 482.325 59.6583 530.178 87.8794L580.685 0.397307Z" fill="url(#paint12_radial)" fill-opacity="0.03"/>
<path d="M350.619 -13.812L402.839 -104.26L493.342 -52.0077L492.914 -51.2663C464.364 -1.81672 400.882 15.2073 351.361 -13.3834L350.619 -13.812ZM403.468 -101.92L353.003 -14.5116C401.327 12.8939 462.893 -3.55556 491.001 -51.3822L403.468 -101.92Z" fill="url(#paint13_radial)" fill-opacity="0.03"/>
<path d="M298.852 74.8251L351.029 -15.5484L441.532 36.7035L441.104 37.4449C412.554 86.8945 349.115 103.844 299.595 75.2537L298.852 74.8251ZM351.658 -13.2083L301.193 74.1996C349.517 101.605 411.083 85.1556 439.191 37.3289L351.658 -13.2083Z" fill="url(#paint14_radial)" fill-opacity="0.03"/>
<path d="M567.265 229.397L567.693 228.656C596.242 179.206 659.799 162.225 709.319 190.815L710.062 191.244L657.842 281.692L567.265 229.397ZM707.721 191.87C659.354 164.538 597.787 180.988 569.605 228.771L657.213 279.352L707.721 191.87Z" fill="url(#paint15_radial)" fill-opacity="0.03"/>
<path d="M580.634 -0.0256198L632.811 -90.399L633.553 -89.9704C683.074 -61.3797 700.114 2.03527 671.565 51.4849L671.137 52.2262L580.634 -0.0256198ZM633.44 -88.059L582.975 -0.651074L670.508 49.8862C697.873 1.63089 681.336 -59.9121 633.44 -88.059Z" fill="url(#paint16_radial)" fill-opacity="0.03"/>
<path d="M262.696 -65.5591L263.124 -66.3005L353.701 -14.0057L301.481 76.4419L300.739 76.0132C251.218 47.4226 234.146 -16.1095 262.696 -65.5591ZM351.36 -13.3803L263.753 -63.9604C236.462 -15.6622 252.999 45.8808 300.852 74.1018L351.36 -13.3803Z" fill="url(#paint17_radial)" fill-opacity="0.03"/>
<path d="M478.393 178.087L530.613 87.6394L531.355 88.0681C580.802 116.616 597.874 180.148 569.324 229.597L568.896 230.339L478.393 178.087ZM531.242 89.9795L480.734 177.462L568.267 227.999C595.558 179.701 579.021 118.158 531.242 89.9795Z" fill="url(#paint18_radial)" fill-opacity="0.03"/>
<path d="M581.148 -0.915814L581.576 -1.65719L672.079 50.5947L671.651 51.336C643.101 100.786 579.619 117.81 530.098 89.219L529.356 88.7904L581.148 -0.915814ZM582.205 0.682852L531.697 88.1649C580.064 115.496 641.63 99.0468 669.738 51.2201L582.205 0.682852Z" fill="url(#paint19_radial)" fill-opacity="0.03"/>
<path d="M413.28 496.451L465.5 406.003L556.077 458.298L503.857 548.745L413.28 496.451ZM466.129 408.343L415.621 495.825L503.228 546.405L553.736 458.923L466.129 408.343Z" fill="url(#paint20_radial)" fill-opacity="0.03"/>
<path d="M4.32374 378.867L56.5437 288.419L147.715 341.057L95.4948 431.504L4.32374 378.867ZM57.1725 290.759L6.66467 378.241L94.866 429.164L145.374 341.682L57.1725 290.759Z" fill="url(#paint21_radial)" fill-opacity="0.03"/>
<path d="M272.877 533.711L325.097 443.264L415.674 495.558L363.454 586.006L272.877 533.711ZM325.726 445.604L275.218 533.086L362.825 583.666L413.333 496.184L325.726 445.604Z" fill="url(#paint22_radial)" fill-opacity="0.03"/>
<path d="M183.488 482.103L235.708 391.655L326.805 444.25L274.585 534.697L183.488 482.103ZM236.337 393.995L185.829 481.477L273.956 532.357L324.464 444.875L236.337 393.995Z" fill="url(#paint23_radial)" fill-opacity="0.03"/>
<path d="M234.775 393.101L286.995 302.653L378.166 355.291L325.946 445.738L234.775 393.101ZM287.624 304.993L237.116 392.475L325.317 443.398L375.825 355.916L287.624 304.993Z" fill="url(#paint24_radial)" fill-opacity="0.03"/>
<path d="M515.657 317.924L567.877 227.477L659.048 280.114L606.828 370.562L515.657 317.924ZM568.506 229.817L517.998 317.299L606.199 368.222L656.707 280.74L568.506 229.817Z" fill="url(#paint25_radial)" fill-opacity="0.03"/>
<path d="M375.466 355.509L427.643 265.136L518.814 317.773L466.637 408.147L375.466 355.509ZM428.272 267.476L377.764 354.958L465.965 405.881L516.473 318.399L428.272 267.476Z" fill="url(#paint26_radial)" fill-opacity="0.03"/>
<path d="M567.818 228.431L568.246 227.69L658.749 279.942L606.529 370.389L605.787 369.96C556.341 341.413 539.269 277.881 567.818 228.431ZM656.408 280.567L568.875 230.03C541.51 278.285 558.047 339.828 605.9 368.049L656.408 280.567Z" fill="url(#paint27_radial)" fill-opacity="0.03"/>
<path d="M464.889 406.542L465.317 405.801L555.82 458.053L503.6 548.5L502.858 548.072C453.337 519.481 436.339 455.992 464.889 406.542ZM553.479 458.678L465.946 408.141C438.581 456.396 455.118 517.939 502.971 546.16L553.479 458.678Z" fill="url(#paint28_radial)" fill-opacity="0.03"/>
<path d="M159.511 112.303L211.731 21.8555L302.902 74.4932L250.682 164.941L159.511 112.303ZM212.36 24.1956L161.852 111.678L250.054 162.601L300.561 75.1186L212.36 24.1956Z" fill="url(#paint29_radial)" fill-opacity="0.03"/>
<path d="M338.344 214.567L338.772 213.826L429.275 266.078L377.055 356.525L376.312 356.097C326.792 327.506 309.794 264.017 338.344 214.567ZM426.934 266.703L339.401 216.166C312.035 264.421 328.573 325.964 376.426 354.185L426.934 266.703Z" fill="url(#paint30_radial)" fill-opacity="0.03"/>
<path d="M210.413 22.0827L210.841 21.3413L301.343 73.5931L249.166 163.967L248.424 163.538C198.903 134.947 181.863 71.5323 210.413 22.0827ZM299.002 74.2186L211.469 23.6813C184.104 71.9367 200.642 133.48 248.537 161.627L299.002 74.2186Z" fill="url(#paint31_radial)" fill-opacity="0.03"/>
<path d="M235.352 392.438L235.78 391.697L326.357 443.991L274.137 534.439L273.395 534.01C223.874 505.42 206.802 441.887 235.352 392.438ZM324.016 444.617L236.409 394.037C209.118 442.335 225.655 503.878 273.508 532.099L324.016 444.617Z" fill="url(#paint32_radial)" fill-opacity="0.03"/>
<path d="M337.621 215.135L389.841 124.687L481.012 177.325L428.792 267.772L337.621 215.135ZM390.469 127.027L339.962 214.509L428.163 265.432L478.671 177.95L390.469 127.027Z" fill="url(#paint33_radial)" fill-opacity="0.03"/>
<path d="M145.374 341.678L197.594 251.231L288.765 303.869L236.545 394.316L145.374 341.678ZM198.223 253.571L147.715 341.053L235.916 391.976L286.424 304.494L198.223 253.571Z" fill="url(#paint34_radial)" fill-opacity="0.03"/>
<path d="M94.0853 430.69L146.305 340.243L237.476 392.88L185.256 483.328L94.0853 430.69ZM146.934 342.583L96.4262 430.065L184.628 480.988L235.135 393.506L146.934 342.583Z" fill="url(#paint35_radial)" fill-opacity="0.03"/>
<path d="M248.305 163.568L300.525 73.1206L391.622 125.715L339.402 216.163L248.305 163.568ZM301.154 75.4606L250.646 162.943L338.773 213.823L389.281 126.341L301.154 75.4606Z" fill="url(#paint36_radial)" fill-opacity="0.03"/>
<path d="M197.015 252.579L249.235 162.132L340.406 214.769L288.186 305.217L197.015 252.579ZM249.864 164.472L199.356 251.954L287.557 302.877L338.065 215.395L249.864 164.472Z" fill="url(#paint37_radial)" fill-opacity="0.03"/>
<path d="M108.293 201.356L160.513 110.908L251.609 163.503L199.389 253.95L108.293 201.356ZM161.141 113.248L110.634 200.73L198.761 251.61L249.268 164.128L161.141 113.248Z" fill="url(#paint38_radial)" fill-opacity="0.03"/>
<path d="M56.2078 290.198L108.428 199.751L199.525 252.346L147.305 342.793L56.2078 290.198ZM109.057 202.091L58.5488 289.573L146.676 340.453L197.184 252.971L109.057 202.091Z" fill="url(#paint39_radial)" fill-opacity="0.03"/>
<path d="M235.121 393.696L235.549 392.955C264.098 343.505 327.612 326.598 377.133 355.189L377.875 355.617L325.698 445.991L235.121 393.696ZM375.534 356.243C327.21 328.837 265.644 345.287 237.462 393.071L325.069 443.651L375.534 356.243Z" fill="url(#paint40_radial)" fill-opacity="0.03"/>
<path d="M337.92 215.307L338.348 214.566C366.897 165.116 430.454 148.135 479.974 176.726L480.717 177.154L428.497 267.602L337.92 215.307ZM478.376 177.78C430.009 150.448 368.443 166.898 340.261 214.682L427.868 265.262L478.376 177.78Z" fill="url(#paint41_radial)" fill-opacity="0.03"/>
<path d="M196.983 252.462L249.16 162.088L249.902 162.517C299.348 191.065 316.463 254.523 287.914 303.972L287.485 304.714L196.983 252.462ZM249.789 164.428L199.324 251.836L286.857 302.374C314.222 254.118 297.684 192.575 249.789 164.428Z" fill="url(#paint42_radial)" fill-opacity="0.03"/>
<path d="M145.491 341.647L197.668 251.274L198.411 251.703C247.857 280.25 264.929 343.782 236.422 393.158L235.994 393.899L145.491 341.647ZM198.297 253.614L147.832 341.022L235.365 391.559C262.688 343.378 246.15 281.835 198.297 253.614Z" fill="url(#paint43_radial)" fill-opacity="0.03"/>
<path d="M108.201 201.002L108.629 200.26C137.179 150.811 200.661 133.787 250.182 162.377L250.924 162.806L198.704 253.253L108.201 201.002ZM248.583 163.431C200.217 136.1 138.65 152.549 110.542 200.376L198.075 250.913L248.583 163.431Z" fill="url(#paint44_radial)" fill-opacity="0.03"/>
<path d="M56.7101 290.187L57.1382 289.446C85.6879 239.996 149.17 222.972 198.69 251.563L199.433 251.991L147.213 342.439L56.7101 290.187ZM197.092 252.617C148.725 225.285 87.1588 241.735 59.0511 289.561L146.584 340.099L197.092 252.617Z" fill="url(#paint45_radial)" fill-opacity="0.03"/>
<path d="M93.6815 430.358L145.859 339.985L236.361 392.237L235.933 392.978C207.384 442.428 143.87 459.335 94.4239 430.787L93.6815 430.358ZM146.487 342.325L96.0224 429.733C144.346 457.139 205.913 440.689 234.021 392.862L146.487 342.325Z" fill="url(#paint46_radial)" fill-opacity="0.03"/>
<path d="M464.631 406.989L465.016 406.322C493.566 356.872 557.048 339.848 606.569 368.439L607.311 368.867L555.134 459.241L464.631 406.989ZM604.97 369.493C556.604 342.161 495.037 358.611 466.929 406.438L554.462 456.975L604.97 369.493Z" fill="url(#paint47_radial)" fill-opacity="0.03"/>
<path d="M362.095 584.931L362.523 584.19C391.073 534.74 454.555 517.716 504.076 546.307L504.818 546.736L452.598 637.183L362.095 584.931ZM502.477 547.361C454.111 520.03 392.544 536.479 364.436 584.306L451.969 634.843L502.477 547.361Z" fill="url(#paint48_radial)" fill-opacity="0.03"/>
<path d="M375.761 355.679L427.938 265.306L428.681 265.735C478.201 294.325 495.316 357.783 466.766 407.233L466.338 407.974L375.761 355.679ZM428.567 267.646L378.102 355.054L465.709 405.634C493 357.336 476.463 295.793 428.567 267.646Z" fill="url(#paint49_radial)" fill-opacity="0.03"/>
<path d="M5.77799 379.607L57.9551 289.234L58.6975 289.663C108.218 318.253 125.216 381.742 96.7089 431.118L96.2809 431.859L5.77799 379.607ZM58.5839 291.574L8.11892 378.982L95.652 429.519C122.975 381.338 106.437 319.795 58.5839 291.574Z" fill="url(#paint50_radial)" fill-opacity="0.03"/>
<path d="M426.712 266.572L478.932 176.124L569.509 228.419L569.081 229.16C540.531 278.61 476.975 295.591 427.454 267L426.712 266.572ZM479.561 178.464L429.053 265.946C477.42 293.277 538.986 276.828 567.094 229.001L479.561 178.464Z" fill="url(#paint51_radial)" fill-opacity="0.03"/>
<path d="M272.879 533.712L325.099 443.265L325.841 443.694C375.362 472.284 392.359 535.773 363.81 585.223L363.382 585.964L272.879 533.712ZM325.728 445.605L275.22 533.087L362.753 583.624C390.118 535.369 373.581 473.826 325.728 445.605Z" fill="url(#paint52_radial)" fill-opacity="0.03"/>
<path d="M324.18 444.512L376.357 354.138L466.86 406.39L466.431 407.132C437.925 456.507 374.442 473.531 324.922 444.94L324.18 444.512ZM376.985 356.478L326.52 443.886C374.844 471.292 436.411 454.842 464.519 407.016L376.985 356.478Z" fill="url(#paint53_radial)" fill-opacity="0.03"/>
<path d="M247.861 163.312L300.081 72.8643L300.823 73.2929C350.27 101.841 367.342 165.373 338.792 214.822L338.364 215.564L247.861 163.312ZM300.71 75.2043L250.202 162.686L337.735 213.224C365.1 164.968 348.563 103.425 300.71 75.2043Z" fill="url(#paint54_radial)" fill-opacity="0.03"/>
</g>
<defs>
<filter id="filter0_f" x="0.323734" y="-426.565" width="918.873" height="1067.75" filterUnits="userSpaceOnUse" color-interpolation-filters="sRGB">
<feFlood flood-opacity="0" result="BackgroundImageFix"/>
<feBlend mode="normal" in="SourceGraphic" in2="BackgroundImageFix" result="shape"/>
<feGaussianBlur stdDeviation="2" result="effect1_foregroundBlur"/>
</filter>
<radialGradient id="paint0_radial" cx="0" cy="0" r="1" gradientUnits="userSpaceOnUse" gradientTransform="translate(638.588 210.277) rotate(-150) scale(52.6376 52.2199)">
<stop stop-color="#481787"/>
<stop offset="1" stop-color="#481787" stop-opacity="0.72"/>
</radialGradient>
<radialGradient id="paint1_radial" cx="0" cy="0" r="1" gradientUnits="userSpaceOnUse" gradientTransform="translate(281.19 4.4283) rotate(-150) scale(52.6376 52.2199)">
<stop stop-color="#481787"/>
<stop offset="1" stop-color="#481787" stop-opacity="0.72"/>
</radialGradient>
<radialGradient id="paint2_radial" cx="0" cy="0" r="1" gradientUnits="userSpaceOnUse" gradientTransform="translate(600.615 69.7886) rotate(-150) scale(52.6376 52.1771)">
<stop stop-color="#481787"/>
<stop offset="1" stop-color="#481787" stop-opacity="0.72"/>
</radialGradient>
<radialGradient id="paint3_radial" cx="0" cy="0" r="1" gradientUnits="userSpaceOnUse" gradientTransform="translate(460.18 107.273) rotate(-150) scale(52.6376 52.2199)">
<stop stop-color="#481787"/>
<stop offset="1" stop-color="#481787" stop-opacity="0.72"/>
</radialGradient>
<radialGradient id="paint4_radial" cx="0" cy="0" r="1" gradientUnits="userSpaceOnUse" gradientTransform="translate(511.669 18.4358) rotate(-150) scale(52.6377 52.1771)">
<stop stop-color="#481787"/>
<stop offset="1" stop-color="#481787" stop-opacity="0.72"/>
</radialGradient>
<radialGradient id="paint5_radial" cx="0" cy="0" r="1" gradientUnits="userSpaceOnUse" gradientTransform="translate(651.808 -19.2295) rotate(-150) scale(52.2947 52.2199)">
<stop stop-color="#481787"/>
<stop offset="1" stop-color="#481787" stop-opacity="0.72"/>
</radialGradient>
<radialGradient id="paint6_radial" cx="0" cy="0" r="1" gradientUnits="userSpaceOnUse" gradientTransform="translate(689.702 121.659) rotate(-150) scale(52.2518 52.2199)">
<stop stop-color="#481787"/>
<stop offset="1" stop-color="#481787" stop-opacity="0.72"/>
</radialGradient>
<radialGradient id="paint7_radial" cx="0" cy="0" r="1" gradientUnits="userSpaceOnUse" gradientTransform="translate(562.749 -70.5507) rotate(-150) scale(52.6376 52.2199)">
<stop stop-color="#481787"/>
<stop offset="1" stop-color="#481787" stop-opacity="0.72"/>
</radialGradient>
<radialGradient id="paint8_radial" cx="0" cy="0" r="1" gradientUnits="userSpaceOnUse" gradientTransform="translate(563.156 -70.3157) rotate(-150) scale(52.2518 52.2199)">
<stop stop-color="#481787"/>
<stop offset="1" stop-color="#481787" stop-opacity="0.72"/>
</radialGradient>
<radialGradient id="paint9_radial" cx="0" cy="0" r="1" gradientUnits="userSpaceOnUse" gradientTransform="translate(460.886 107.681) rotate(-150) scale(52.2518 52.2199)">
<stop stop-color="#481787"/>
<stop offset="1" stop-color="#481787" stop-opacity="0.72"/>
</radialGradient>
<radialGradient id="paint10_radial" cx="0" cy="0" r="1" gradientUnits="userSpaceOnUse" gradientTransform="translate(422.24 -32.76) rotate(-150) scale(52.6376 52.2199)">
<stop stop-color="#481787"/>
<stop offset="1" stop-color="#481787" stop-opacity="0.72"/>
</radialGradient>
<radialGradient id="paint11_radial" cx="0" cy="0" r="1" gradientUnits="userSpaceOnUse" gradientTransform="translate(371.024 56.294) rotate(-150) scale(52.6376 52.2199)">
<stop stop-color="#481787"/>
<stop offset="1" stop-color="#481787" stop-opacity="0.72"/>
</radialGradient>
<radialGradient id="paint12_radial" cx="0" cy="0" r="1" gradientUnits="userSpaceOnUse" gradientTransform="translate(511.665 18.8697) rotate(-150) scale(52.2518 52.2199)">
<stop stop-color="#481787"/>
<stop offset="1" stop-color="#481787" stop-opacity="0.72"/>
</radialGradient>
<radialGradient id="paint13_radial" cx="0" cy="0" r="1" gradientUnits="userSpaceOnUse" gradientTransform="translate(421.98 -32.9098) rotate(-150) scale(52.2518 52.2199)">
<stop stop-color="#481787"/>
<stop offset="1" stop-color="#481787" stop-opacity="0.72"/>
</radialGradient>
<radialGradient id="paint14_radial" cx="0" cy="0" r="1" gradientUnits="userSpaceOnUse" gradientTransform="translate(370.192 55.7643) rotate(-150) scale(52.2519 52.1771)">
<stop stop-color="#481787"/>
<stop offset="1" stop-color="#481787" stop-opacity="0.72"/>
</radialGradient>
<radialGradient id="paint15_radial" cx="0" cy="0" r="1" gradientUnits="userSpaceOnUse" gradientTransform="translate(638.663 210.32) rotate(-150) scale(52.2947 52.2199)">
<stop stop-color="#481787"/>
<stop offset="1" stop-color="#481787" stop-opacity="0.72"/>
</radialGradient>
<radialGradient id="paint16_radial" cx="0" cy="0" r="1" gradientUnits="userSpaceOnUse" gradientTransform="translate(651.974 -19.0864) rotate(-150) scale(52.2518 52.1771)">
<stop stop-color="#481787"/>
<stop offset="1" stop-color="#481787" stop-opacity="0.72"/>
</radialGradient>
<radialGradient id="paint17_radial" cx="0" cy="0" r="1" gradientUnits="userSpaceOnUse" gradientTransform="translate(282.303 5.0707) rotate(-150) scale(52.2947 52.2199)">
<stop stop-color="#481787"/>
<stop offset="1" stop-color="#481787" stop-opacity="0.72"/>
</radialGradient>
<radialGradient id="paint18_radial" cx="0" cy="0" r="1" gradientUnits="userSpaceOnUse" gradientTransform="translate(549.755 158.989) rotate(-150) scale(52.2518 52.2199)">
<stop stop-color="#481787"/>
<stop offset="1" stop-color="#481787" stop-opacity="0.72"/>
</radialGradient>
<radialGradient id="paint19_radial" cx="0" cy="0" r="1" gradientUnits="userSpaceOnUse" gradientTransform="translate(600.717 69.6925) rotate(-150) scale(52.2518 52.2199)">
<stop stop-color="#481787"/>
<stop offset="1" stop-color="#481787" stop-opacity="0.72"/>
</radialGradient>
<radialGradient id="paint20_radial" cx="0" cy="0" r="1" gradientUnits="userSpaceOnUse" gradientTransform="translate(484.678 477.374) rotate(-150) scale(52.2947 52.2199)">
<stop stop-color="#481787"/>
<stop offset="1" stop-color="#481787" stop-opacity="0.72"/>
</radialGradient>
<radialGradient id="paint21_radial" cx="0" cy="0" r="1" gradientUnits="userSpaceOnUse" gradientTransform="translate(76.0192 359.962) rotate(-150) scale(52.6376 52.2199)">
<stop stop-color="#481787"/>
<stop offset="1" stop-color="#481787" stop-opacity="0.72"/>
</radialGradient>
<radialGradient id="paint22_radial" cx="0" cy="0" r="1" gradientUnits="userSpaceOnUse" gradientTransform="translate(344.276 514.635) rotate(-150) scale(52.2947 52.2199)">
<stop stop-color="#481787"/>
<stop offset="1" stop-color="#481787" stop-opacity="0.72"/>
</radialGradient>
<radialGradient id="paint23_radial" cx="0" cy="0" r="1" gradientUnits="userSpaceOnUse" gradientTransform="translate(255.147 463.176) rotate(-150) scale(52.5948 52.2199)">
<stop stop-color="#481787"/>
<stop offset="1" stop-color="#481787" stop-opacity="0.72"/>
</radialGradient>
<radialGradient id="paint24_radial" cx="0" cy="0" r="1" gradientUnits="userSpaceOnUse" gradientTransform="translate(306.47 374.196) rotate(-150) scale(52.6376 52.2199)">
<stop stop-color="#481787"/>
<stop offset="1" stop-color="#481787" stop-opacity="0.72"/>
</radialGradient>
<radialGradient id="paint25_radial" cx="0" cy="0" r="1" gradientUnits="userSpaceOnUse" gradientTransform="translate(587.353 299.019) rotate(-150) scale(52.6376 52.2199)">
<stop stop-color="#481787"/>
<stop offset="1" stop-color="#481787" stop-opacity="0.72"/>
</radialGradient>
<radialGradient id="paint26_radial" cx="0" cy="0" r="1" gradientUnits="userSpaceOnUse" gradientTransform="translate(447.14 336.641) rotate(-150) scale(52.6376 52.1771)">
<stop stop-color="#481787"/>
<stop offset="1" stop-color="#481787" stop-opacity="0.72"/>
</radialGradient>
<radialGradient id="paint27_radial" cx="0" cy="0" r="1" gradientUnits="userSpaceOnUse" gradientTransform="translate(587.388 299.039) rotate(-150) scale(52.2518 52.2199)">
<stop stop-color="#481787"/>
<stop offset="1" stop-color="#481787" stop-opacity="0.72"/>
</radialGradient>
<radialGradient id="paint28_radial" cx="0" cy="0" r="1" gradientUnits="userSpaceOnUse" gradientTransform="translate(484.459 477.151) rotate(-150) scale(52.2518 52.2199)">
<stop stop-color="#481787"/>
<stop offset="1" stop-color="#481787" stop-opacity="0.72"/>
</radialGradient>
<radialGradient id="paint29_radial" cx="0" cy="0" r="1" gradientUnits="userSpaceOnUse" gradientTransform="translate(231.207 93.3982) rotate(-150) scale(52.6376 52.2199)">
<stop stop-color="#481787"/>
<stop offset="1" stop-color="#481787" stop-opacity="0.72"/>
</radialGradient>
<radialGradient id="paint30_radial" cx="0" cy="0" r="1" gradientUnits="userSpaceOnUse" gradientTransform="translate(357.913 285.176) rotate(-150) scale(52.2518 52.2199)">
<stop stop-color="#481787"/>
<stop offset="1" stop-color="#481787" stop-opacity="0.72"/>
</radialGradient>
<radialGradient id="paint31_radial" cx="0" cy="0" r="1" gradientUnits="userSpaceOnUse" gradientTransform="translate(230.003 92.6539) rotate(-150) scale(52.2518 52.1771)">
<stop stop-color="#481787"/>
<stop offset="1" stop-color="#481787" stop-opacity="0.72"/>
</radialGradient>
<radialGradient id="paint32_radial" cx="0" cy="0" r="1" gradientUnits="userSpaceOnUse" gradientTransform="translate(254.958 463.068) rotate(-150) scale(52.2947 52.2199)">
<stop stop-color="#481787"/>
<stop offset="1" stop-color="#481787" stop-opacity="0.72"/>
</radialGradient>
<radialGradient id="paint33_radial" cx="0" cy="0" r="1" gradientUnits="userSpaceOnUse" gradientTransform="translate(409.316 196.23) rotate(-150) scale(52.6376 52.2199)">
<stop stop-color="#481787"/>
<stop offset="1" stop-color="#481787" stop-opacity="0.72"/>
</radialGradient>
<radialGradient id="paint34_radial" cx="0" cy="0" r="1" gradientUnits="userSpaceOnUse" gradientTransform="translate(217.069 322.773) rotate(-150) scale(52.6376 52.2199)">
<stop stop-color="#481787"/>
<stop offset="1" stop-color="#481787" stop-opacity="0.72"/>
</radialGradient>
<radialGradient id="paint35_radial" cx="0" cy="0" r="1" gradientUnits="userSpaceOnUse" gradientTransform="translate(165.781 411.785) rotate(-150) scale(52.6376 52.2199)">
<stop stop-color="#481787"/>
<stop offset="1" stop-color="#481787" stop-opacity="0.72"/>
</radialGradient>
<radialGradient id="paint36_radial" cx="0" cy="0" r="1" gradientUnits="userSpaceOnUse" gradientTransform="translate(319.963 144.642) rotate(-150) scale(52.5948 52.2199)">
<stop stop-color="#481787"/>
<stop offset="1" stop-color="#481787" stop-opacity="0.72"/>
</radialGradient>
<radialGradient id="paint37_radial" cx="0" cy="0" r="1" gradientUnits="userSpaceOnUse" gradientTransform="translate(268.71 233.674) rotate(-150) scale(52.6376 52.2199)">
<stop stop-color="#481787"/>
<stop offset="1" stop-color="#481787" stop-opacity="0.72"/>
</radialGradient>
<radialGradient id="paint38_radial" cx="0" cy="0" r="1" gradientUnits="userSpaceOnUse" gradientTransform="translate(179.951 182.429) rotate(-150) scale(52.5947 52.2199)">
<stop stop-color="#481787"/>
<stop offset="1" stop-color="#481787" stop-opacity="0.72"/>
</radialGradient>
<radialGradient id="paint39_radial" cx="0" cy="0" r="1" gradientUnits="userSpaceOnUse" gradientTransform="translate(127.866 271.272) rotate(-150) scale(52.5948 52.2199)">
<stop stop-color="#481787"/>
<stop offset="1" stop-color="#481787" stop-opacity="0.72"/>
</radialGradient>
<radialGradient id="paint40_radial" cx="0" cy="0" r="1" gradientUnits="userSpaceOnUse" gradientTransform="translate(306.498 374.657) rotate(-150) scale(52.2947 52.1771)">
<stop stop-color="#481787"/>
<stop offset="1" stop-color="#481787" stop-opacity="0.72"/>
</radialGradient>
<radialGradient id="paint41_radial" cx="0" cy="0" r="1" gradientUnits="userSpaceOnUse" gradientTransform="translate(409.318 196.231) rotate(-150) scale(52.2947 52.2199)">
<stop stop-color="#481787"/>
<stop offset="1" stop-color="#481787" stop-opacity="0.72"/>
</radialGradient>
<radialGradient id="paint42_radial" cx="0" cy="0" r="1" gradientUnits="userSpaceOnUse" gradientTransform="translate(268.323 233.401) rotate(-150) scale(52.2518 52.1771)">
<stop stop-color="#481787"/>
<stop offset="1" stop-color="#481787" stop-opacity="0.72"/>
</radialGradient>
<radialGradient id="paint43_radial" cx="0" cy="0" r="1" gradientUnits="userSpaceOnUse" gradientTransform="translate(216.831 322.587) rotate(-150) scale(52.2518 52.1771)">
<stop stop-color="#481787"/>
<stop offset="1" stop-color="#481787" stop-opacity="0.72"/>
</radialGradient>
<radialGradient id="paint44_radial" cx="0" cy="0" r="1" gradientUnits="userSpaceOnUse" gradientTransform="translate(179.563 181.904) rotate(-150) scale(52.2518 52.2199)">
<stop stop-color="#481787"/>
<stop offset="1" stop-color="#481787" stop-opacity="0.72"/>
</radialGradient>
<radialGradient id="paint45_radial" cx="0" cy="0" r="1" gradientUnits="userSpaceOnUse" gradientTransform="translate(128.072 271.089) rotate(-150) scale(52.2518 52.2199)">
<stop stop-color="#481787"/>
<stop offset="1" stop-color="#481787" stop-opacity="0.72"/>
</radialGradient>
<radialGradient id="paint46_radial" cx="0" cy="0" r="1" gradientUnits="userSpaceOnUse" gradientTransform="translate(165.021 411.298) rotate(-150) scale(52.2518 52.1771)">
<stop stop-color="#481787"/>
<stop offset="1" stop-color="#481787" stop-opacity="0.72"/>
</radialGradient>
<radialGradient id="paint47_radial" cx="0" cy="0" r="1" gradientUnits="userSpaceOnUse" gradientTransform="translate(535.971 387.928) rotate(-150) scale(52.2518 52.1771)">
<stop stop-color="#481787"/>
<stop offset="1" stop-color="#481787" stop-opacity="0.72"/>
</radialGradient>
<radialGradient id="paint48_radial" cx="0" cy="0" r="1" gradientUnits="userSpaceOnUse" gradientTransform="translate(433.457 565.834) rotate(-150) scale(52.2519 52.2199)">
<stop stop-color="#481787"/>
<stop offset="1" stop-color="#481787" stop-opacity="0.72"/>
</radialGradient>
<radialGradient id="paint49_radial" cx="0" cy="0" r="1" gradientUnits="userSpaceOnUse" gradientTransform="translate(447.138 336.64) rotate(-150) scale(52.2947 52.1771)">
<stop stop-color="#481787"/>
<stop offset="1" stop-color="#481787" stop-opacity="0.72"/>
</radialGradient>
<radialGradient id="paint50_radial" cx="0" cy="0" r="1" gradientUnits="userSpaceOnUse" gradientTransform="translate(77.118 360.547) rotate(-150) scale(52.2519 52.1771)">
<stop stop-color="#481787"/>
<stop offset="1" stop-color="#481787" stop-opacity="0.72"/>
</radialGradient>
<radialGradient id="paint51_radial" cx="0" cy="0" r="1" gradientUnits="userSpaceOnUse" gradientTransform="translate(498.111 247.495) rotate(-150) scale(52.2947 52.2199)">
<stop stop-color="#481787"/>
<stop offset="1" stop-color="#481787" stop-opacity="0.72"/>
</radialGradient>
<radialGradient id="paint52_radial" cx="0" cy="0" r="1" gradientUnits="userSpaceOnUse" gradientTransform="translate(344.24 514.615) rotate(-150) scale(52.2518 52.2199)">
<stop stop-color="#481787"/>
<stop offset="1" stop-color="#481787" stop-opacity="0.72"/>
</radialGradient>
<radialGradient id="paint53_radial" cx="0" cy="0" r="1" gradientUnits="userSpaceOnUse" gradientTransform="translate(395.52 425.451) rotate(-150) scale(52.2518 52.1771)">
<stop stop-color="#481787"/>
<stop offset="1" stop-color="#481787" stop-opacity="0.72"/>
</radialGradient>
<radialGradient id="paint54_radial" cx="0" cy="0" r="1" gradientUnits="userSpaceOnUse" gradientTransform="translate(319.222 144.214) rotate(-150) scale(52.2518 52.2199)">
<stop stop-color="#481787"/>
<stop offset="1" stop-color="#481787" stop-opacity="0.72"/>
</radialGradient>
</defs>
</svg>
