<svg width="580" height="600" viewBox="0 0 580 600" fill="none" xmlns="http://www.w3.org/2000/svg">
<path d="M837.5 512.5H812.5V48.75C812.5 36.25 801.25 25 788.75 25H116.25C103.75 25 87.5 36.25 87.5 43.75V512.5H62.5V43.75C62.5 17.5 95 0 116.25 0H788.75C815 0 837.5 22.5 837.5 48.75V512.5Z" fill="white" fill-opacity="0.5"/>
<path d="M828.75 600H71.25C32.5 600 0 566.25 0 527.5V512.5H900V527.5C900 566.25 867.5 600 828.75 600ZM26.25 537.5C31.25 558.75 50 575 71.25 575H830C851.25 575 870 558.75 875 537.5H26.25Z" fill="white" fill-opacity="0.5"/>
<path d="M787.5 537.5H112.5V50.0005H787.5V537.5ZM137.5 512.5H762.5V75.0005H137.5V512.5Z" fill="white" fill-opacity="0.5"/>
<path d="M462.5 24.9995H437.5V49.9995H462.5V24.9995Z" fill="white" fill-opacity="0.5"/>
<path d="M525 537.499H375V562.499H525V537.499Z" fill="white" fill-opacity="0.5"/>
</svg>
