<svg width="548" height="724" viewBox="0 0 548 724" xmlns="http://www.w3.org/2000/svg" xmlns:xlink="http://www.w3.org/1999/xlink" fill="none" overflow="hidden"><path d="M1010.58 618.417 980.417 618.417 980.417 58.825C980.417 43.7417 966.842 30.1667 951.758 30.1667L140.275 30.1667C125.192 30.1667 105.583 43.7417 105.583 52.7917L105.583 618.417 75.4167 618.417 75.4167 52.7917C75.4167 21.1167 114.633 0 140.275 0L951.758 0C983.433 0 1010.58 27.15 1010.58 58.825L1010.58 618.417Z" fill="#FFFFFF" fill-opacity="0.5"/><path d="M1000.03 724 85.975 724C39.2167 724 0 683.275 0 636.517L0 618.417 1086 618.417 1086 636.517C1086 683.275 1046.78 724 1000.03 724ZM31.675 648.584C37.7083 674.225 60.3333 693.834 85.975 693.834L1001.53 693.834C1027.18 693.834 1049.8 674.225 1055.83 648.584L31.675 648.584Z" fill="#FFFFFF" fill-opacity="0.5"/><path d="M950.25 648.583 135.75 648.583 135.75 60.3335 950.25 60.3335 950.25 648.583ZM165.917 618.417 920.083 618.417 920.083 90.5002 165.917 90.5002 165.917 618.417Z" fill="#FFFFFF" fill-opacity="0.5"/><path d="M558.083 30.1665 527.917 30.1665 527.917 60.3332 558.083 60.3332 558.083 30.1665Z" fill="#FFFFFF" fill-opacity="0.5"/><path d="M633.5 648.583 452.5 648.583 452.5 678.75 633.5 678.75 633.5 648.583Z" fill="#FFFFFF" fill-opacity="0.5"/></svg>