<svg width="26" height="31" viewBox="0 0 26 31" fill="none" xmlns="http://www.w3.org/2000/svg">
<path d="M5.49106 0.857422C4.48437 0.857422 3.66071 1.68108 3.66071 2.68778V28.3128C3.66071 29.3195 4.48437 30.1431 5.49106 30.1431H23.7946C24.8013 30.1431 25.625 29.3195 25.625 28.3128V8.17885L18.3036 0.857422H5.49106Z" fill="#E2E5E7"/>
<path d="M20.1339 8.17885H25.625L18.3036 0.857422V6.34849C18.3036 7.35519 19.1272 8.17885 20.1339 8.17885Z" fill="#B0B7BD"/>
<path d="M25.625 13.6698L20.1339 8.17871H25.625V13.6698Z" fill="#CAD1D8"/>
<path d="M21.9643 24.6519C21.9643 25.1553 21.5525 25.5671 21.0491 25.5671H0.915179C0.41183 25.5671 0 25.1553 0 24.6519V15.5001C0 14.9968 0.41183 14.585 0.915179 14.585H21.0491C21.5525 14.585 21.9643 14.9968 21.9643 15.5001V24.6519Z" fill="#F15642"/>
<path d="M3.98962 18.1966C3.98962 17.955 4.17998 17.6914 4.48657 17.6914H6.1769C7.12869 17.6914 7.98529 18.3284 7.98529 19.5492C7.98529 20.706 7.12869 21.3503 6.1769 21.3503H4.95514V22.3167C4.95514 22.6389 4.75014 22.821 4.48657 22.821C4.24496 22.821 3.98962 22.6389 3.98962 22.3167V18.1966ZM4.95514 18.613V20.436H6.1769C6.66744 20.436 7.05547 20.0031 7.05547 19.5492C7.05547 19.0376 6.66744 18.613 6.1769 18.613H4.95514Z" fill="white"/>
<path d="M9.41784 22.8215C9.17623 22.8215 8.91266 22.6897 8.91266 22.3685V18.2117C8.91266 17.9491 9.17623 17.7578 9.41784 17.7578H11.0935C14.4376 17.7578 14.3644 22.8215 11.1594 22.8215H9.41784ZM9.87909 18.651V21.9292H11.0935C13.0694 21.9292 13.1573 18.651 11.0935 18.651H9.87909Z" fill="white"/>
<path d="M15.5503 18.7095V19.8727H17.4163C17.6799 19.8727 17.9435 20.1363 17.9435 20.3916C17.9435 20.6332 17.6799 20.8309 17.4163 20.8309H15.5503V22.3675C15.5503 22.6238 15.3682 22.8205 15.1119 22.8205C14.7898 22.8205 14.593 22.6238 14.593 22.3675V18.2108C14.593 17.9481 14.7907 17.7568 15.1119 17.7568H17.6808C18.003 17.7568 18.1933 17.9481 18.1933 18.2108C18.1933 18.4451 18.003 18.7086 17.6808 18.7086H15.5503V18.7095Z" fill="white"/>
<path d="M21.0491 25.5675H3.66071V26.4827H21.0491C21.5524 26.4827 21.9643 26.0709 21.9643 25.5675V24.6523C21.9643 25.1557 21.5524 25.5675 21.0491 25.5675Z" fill="#CAD1D8"/>
</svg>
